<?xml version="1.0" encoding="UTF-8"?><svg id="a" xmlns="http://www.w3.org/2000/svg" xmlns:xlink="http://www.w3.org/1999/xlink" viewBox="0 0 980 241"><defs><style>.d{fill:#78eaea;stroke:#78eaea;stroke-miterlimit:10;}.e{filter:url(#b);}</style><filter id="b" filterUnits="userSpaceOnUse"><feOffset dx="0" dy="0"/><feGaussianBlur result="c" stdDeviation="14"/><feFlood flood-color="#18e4ec" flood-opacity=".9"/><feComposite in2="c" operator="in"/><feComposite in="SourceGraphic"/></filter></defs><g class="e"><path class="d" d="M24.1,212.8c-1.1,0-2.1-.4-2.9-1.2-.8-.8-1.2-1.7-1.2-2.8V40c0-1.1,.4-2.1,1.2-2.8,.8-.8,1.8-1.2,2.9-1.2s2.1,.4,2.9,1.2c.8,.8,1.2,1.7,1.2,2.8V208.8c0,1.1-.4,2.1-1.2,2.8-.8,.8-1.8,1.2-2.9,1.2Zm48.2-96.3c-1.1,0-2.1-.5-2.8-1.3-.8-.8-1.2-1.7-1.2-2.8s.4-2.1,1.2-2.9c.8-.8,1.7-1.2,2.8-1.2,5.7-.2,10.4-2.2,14.2-6,3.8-3.8,5.8-8.5,5.8-14s-1.9-10.2-5.8-14.1c-3.8-3.9-8.6-5.9-14.2-5.9h-20v44.1c0,1.1-.4,2.1-1.2,2.8-.8,.8-1.8,1.2-2.9,1.2s-2.1-.4-2.9-1.2c-.8-.8-1.2-1.7-1.2-2.8v-48.2c0-1.1,.4-2.1,1.2-2.9s1.8-1.2,2.9-1.2h24.1c7.8,0,14.4,2.8,19.9,8.3,5.5,5.5,8.3,12.2,8.3,19.9s-2.8,14.4-8.3,19.9c-5.5,5.5-12.2,8.3-19.9,8.3Zm0,72.3c-1.1,0-2.1-.4-2.8-1.2-.8-.8-1.2-1.8-1.2-2.9s.4-2.1,1.2-2.9c.8-.8,1.7-1.2,2.8-1.2,5.7-.2,10.4-2.2,14.2-6,3.8-3.8,5.8-8.5,5.8-14s-1.9-10.2-5.8-14c-3.8-3.8-8.6-5.8-14.2-6h-20v44.1c0,1.1-.4,2.1-1.2,2.8-.8,.8-1.8,1.2-2.9,1.2s-2.1-.4-2.9-1.2c-.8-.8-1.2-1.7-1.2-2.8v-48.2c0-1.1,.4-2.1,1.2-2.9s1.8-1.2,2.9-1.2h24.1c7.8,0,14.4,2.8,19.9,8.3,5.5,5.5,8.3,12.2,8.3,19.9s-2.7,14.3-8.1,19.8c-5.4,5.4-12.1,8.2-20.1,8.5Zm0,24.1h-24.1c-1.1,0-2.1-.4-2.8-1.2-.8-.8-1.2-1.8-1.2-2.9s.4-2.1,1.2-2.9c.8-.8,1.7-1.2,2.8-1.2h24.1c8.2,0,15.7-2.1,22.3-6,6.6-3.9,11.9-9.2,15.9-15.9,4-6.7,5.9-14.1,5.9-22.2,0-12.7-5-23.7-14.9-33.1-1-.9-1.5-1.9-1.5-3.2s.5-2.1,1.5-3c9.9-9.5,14.9-20.5,14.9-33.1s-2-15.6-5.9-22.2c-4-6.7-9.3-12-16-15.9-6.7-4-14.1-5.9-22.2-5.9h-24.1c-1.1,0-2.1-.4-2.8-1.3-.8-.8-1.2-1.8-1.2-2.8s.4-2.1,1.2-2.9c.8-.8,1.7-1.2,2.8-1.2h24.1c14,0,26.3,5.1,37,15.3,10.3,10.7,15.4,23.1,15.4,37.1s-4.8,25.5-14.5,36.1c9.7,10.7,14.5,22.7,14.5,36.2s-2.4,18.4-7.1,26.3c-4.7,7.9-11,14.2-18.9,18.9-7.9,4.7-16.7,7.1-26.4,7.1Z"/><path class="d" d="M209.6,213c-9.6,0-18.4-2.4-26.3-7.1-7.9-4.7-14.2-11-19-19-4.7-7.9-7.1-16.7-7.1-26.3s.4-2.1,1.2-2.8c.8-.8,1.8-1.2,2.9-1.2s2.1,.4,2.9,1.2c.8,.8,1.2,1.7,1.2,2.8,0,8.1,2,15.5,5.9,22.2,4,6.7,9.3,12,16,16,6.7,4,14.1,5.9,22.2,5.9s15.5-2,22.2-5.9c6.7-4,12-9.3,16-16,4-6.7,5.9-14.1,5.9-22.2V88.3c0-8.2-2-15.6-5.9-22.2-4-6.7-9.3-12-16-15.9-6.7-4-14.1-5.9-22.2-5.9s-15.5,2-22.2,5.9c-6.7,4-12,9.3-16,15.9-4,6.7-5.9,14.1-5.9,22.2v48.2c0,1.1-.4,2.1-1.2,2.8-.8,.8-1.8,1.2-2.9,1.2s-2.1-.4-2.9-1.2c-.8-.8-1.2-1.7-1.2-2.8v-48.2c0-9.6,2.4-18.4,7.1-26.3,4.7-7.9,11-14.2,19-19,7.9-4.7,16.7-7.1,26.3-7.1s18.4,2.4,26.3,7.1c7.9,4.7,14.2,11,19,19,4.7,7.9,7.1,16.7,7.1,26.3v72.3c0,9.6-2.4,18.4-7.1,26.3-4.7,7.9-11,14.2-19,19-7.9,4.7-16.7,7.1-26.3,7.1Zm0-24.1c-7.8,0-14.4-2.8-19.9-8.3-5.5-5.5-8.3-12.2-8.3-19.9v-48.2c0-1.1,.4-2.1,1.2-2.8,.8-.8,1.8-1.2,2.9-1.2s2.1,.4,2.9,1.2c.8,.8,1.2,1.7,1.2,2.8v48.2c0,5.5,2,10.2,5.9,14.1,3.9,3.9,8.6,5.9,14.1,5.9s10.2-2,14.1-5.9,5.9-8.6,5.9-14.1V88.3c0-5.5-2-10.2-5.9-14.1-3.9-3.9-8.6-5.9-14.1-5.9s-10.2,2-14.1,5.9c-3.9,3.9-5.9,8.6-5.9,14.1s-.4,2.1-1.2,2.8c-.8,.8-1.8,1.2-2.9,1.2s-2.1-.4-2.9-1.2c-.8-.8-1.2-1.7-1.2-2.8,0-7.8,2.8-14.4,8.3-19.9,5.5-5.5,12.2-8.3,19.9-8.3s14.4,2.8,19.9,8.3c5.5,5.5,8.3,12.2,8.3,19.9v72.3c0,7.8-2.8,14.4-8.3,19.9-5.5,5.5-12.2,8.3-19.9,8.3Z"/><path class="d" d="M346.9,213c-9.6,0-18.4-2.4-26.3-7.1-7.9-4.7-14.2-11-19-19-4.7-7.9-7.1-16.7-7.1-26.3V40.1c0-1.1,.4-2.1,1.2-2.8,.8-.8,1.8-1.2,2.9-1.2s2.1,.4,2.9,1.2c.8,.8,1.2,1.7,1.2,2.8v120.6c0,8.1,2,15.5,5.9,22.2,4,6.7,9.3,12,16,16,6.7,4,14.1,5.9,22.2,5.9s15.5-2,22.2-5.9c6.7-4,12-9.3,16-16,4-6.7,5.9-14.1,5.9-22.2V40.1c0-1.1,.4-2.1,1.2-2.8,.8-.8,1.8-1.2,2.9-1.2s2.1,.4,2.9,1.2c.8,.8,1.2,1.7,1.2,2.8v120.6c-.2,14.4-5.3,26.7-15.4,37-10.7,10.3-23,15.4-37,15.4Zm0-24.1c-7.8,0-14.4-2.8-19.9-8.3-5.5-5.5-8.3-12.2-8.3-19.9V40.1c0-1.1,.4-2.1,1.2-2.8,.8-.8,1.8-1.2,2.9-1.2s2.1,.4,2.9,1.2c.8,.8,1.2,1.7,1.2,2.8v120.6c0,5.5,2,10.2,5.9,14.1,3.9,3.9,8.6,5.9,14.1,5.9s10.2-2,14.1-5.9,5.9-8.6,5.9-14.1V40.1c0-1.1,.4-2.1,1.2-2.8,.8-.8,1.8-1.2,2.9-1.2s2.1,.4,2.9,1.2c.8,.8,1.2,1.7,1.2,2.8v120.6c0,7.8-2.8,14.4-8.2,20-5.8,5.5-12.5,8.2-20,8.2Z"/><path class="d" d="M435.9,212.9c-1.2,0-2.2-.5-3-1.2-.8-.7-1.2-1.7-1.2-2.8V40c0-1.1,.5-2.1,1.3-2.8,.8-.7,1.7-1.1,2.8-1.2,1.1,0,2.1,.5,2.9,1.2,.8,.7,1.2,1.7,1.2,2.8V208.9c-.1,1.1-.5,2.1-1.3,2.8-.8,.7-1.7,1.1-2.8,1.2Zm59.6,0c-1.9,0-3.2-1-3.9-2.9l-27.6-96.8v95.7c0,1.1-.4,2-1.2,2.8s-1.8,1.2-2.9,1.2-2-.4-2.8-1.2c-.8-.8-1.3-1.7-1.3-2.8V84c0-1,.4-2,1.2-2.8,.8-.8,1.9-1.3,3.2-1.3,1.9,0,3.1,1,3.8,2.9,23.9,83.5,35.9,125.5,35.9,125.9,0,.8-.2,1.6-.6,2.3-.7,1.3-1.9,1.9-3.6,1.9Zm13.2-43.9c-2.2,0-3.7-1-4.5-2.9-23.9-83.5-35.9-125.5-35.9-125.9,0-.8,.2-1.6,.7-2.3,.7-1.3,1.9-1.9,3.4-1.9s3.3,1,3.9,2.9l27.8,96.8V40c0-1,.4-2,1.2-2.8s1.7-1.2,2.8-1.2,2.1,.4,2.9,1.2c.8,.8,1.2,1.7,1.2,2.8v124.9c0,1.1-.3,2-1,2.7-.6,.8-1.5,1.2-2.5,1.4Zm23.6,43.9c-1.1,0-2.1-.5-2.9-1.2-.8-.7-1.2-1.7-1.2-2.8V40c.1-1.1,.5-2.1,1.3-2.8,.8-.7,1.7-1.1,2.8-1.2,1.2,0,2.2,.5,3,1.2,.8,.7,1.2,1.7,1.2,2.8V208.9c0,1.1-.5,2.1-1.3,2.8-.8,.7-1.7,1.1-2.8,1.2Z"/><path class="d" d="M621.4,213c-9.6,0-18.4-2.4-26.3-7.1-7.9-4.7-14.2-11-19-19-4.7-7.9-7.1-16.7-7.1-26.3V88.3c.2-14.4,5.3-26.7,15.4-37.1,10.7-10.2,23-15.3,37-15.3s18.4,2.4,26.3,7.1c7.9,4.7,14.2,11,19,19,4.7,7.9,7.1,16.7,7.1,26.3s-.4,2.1-1.2,2.8c-.8,.8-1.8,1.2-2.9,1.2s-2.1-.4-2.9-1.2c-.8-.8-1.2-1.7-1.2-2.8,0-8.2-2-15.6-5.9-22.2-4-6.7-9.3-12-16-15.9-6.7-4-14.1-5.9-22.2-5.9s-15.5,2-22.2,5.9c-6.7,4-12,9.3-16,15.9-4,6.7-5.9,14.1-5.9,22.2v72.3c0,11.8,4.3,22.2,12.8,31.3,9,8.6,19.5,12.8,31.3,12.8s15.5-2,22.2-5.9c6.7-4,12-9.3,16-16,4-6.7,5.9-14.1,5.9-22.2s.4-2.1,1.2-2.8c.8-.8,1.8-1.2,2.9-1.2s2.1,.4,2.9,1.2c.8,.8,1.2,1.7,1.2,2.8,0,9.6-2.4,18.4-7.1,26.3-4.7,7.9-11,14.2-19,19-7.9,4.7-16.7,7.1-26.3,7.1Zm0-24.1c-7.8,0-14.4-2.8-19.9-8.3-5.5-5.5-8.3-12.2-8.3-19.9V88.3c0-7.8,2.8-14.4,8.2-20,5.8-5.5,12.5-8.2,20-8.2s14.4,2.8,19.9,8.3c5.5,5.5,8.3,12.2,8.3,19.9s-.4,2.1-1.2,2.8c-.8,.8-1.8,1.2-2.9,1.2s-2.1-.4-2.9-1.2c-.8-.8-1.2-1.7-1.2-2.8,0-5.5-2-10.2-5.9-14.1-3.9-3.9-8.6-5.9-14.1-5.9s-10.2,2-14.1,5.9c-3.9,3.9-5.9,8.6-5.9,14.1v72.3c0,5.3,1.9,10.1,5.8,14.2,4.1,3.9,8.8,5.8,14.2,5.8s10.2-2,14.1-5.9,5.9-8.6,5.9-14.1,.4-2.1,1.2-2.8c.8-.8,1.8-1.2,2.9-1.2s2.1,.4,2.9,1.2c.8,.8,1.2,1.7,1.2,2.8,0,7.8-2.8,14.4-8.3,19.9-5.5,5.5-12.2,8.3-19.9,8.3Z"/><path class="d" d="M710.4,212.9c-1.1,0-2.1-.4-2.9-1.2-.8-.8-1.2-1.7-1.2-2.8V40.1c0-1.1,.4-2.1,1.2-2.8,.8-.8,1.8-1.2,2.9-1.2s2.1,.4,2.9,1.2c.8,.8,1.2,1.7,1.2,2.8V208.9c0,1.1-.4,2.1-1.2,2.8-.8,.8-1.8,1.2-2.9,1.2Zm72.3-72.2h-24.1c-1.1,0-2.1-.4-2.8-1.2-.8-.8-1.2-1.8-1.2-2.9s.4-2.1,1.2-2.9c.8-.8,1.7-1.2,2.8-1.2h20v-15.9h-44.1c-1.1,0-2.1-.4-2.9-1.2-.8-.8-1.2-1.8-1.2-2.9v-48.2c0-1.1,.4-2.1,1.2-2.9s1.8-1.2,2.9-1.2h68.2v-15.9h-68.2c-1.1,0-2.1-.4-2.8-1.3-.8-.8-1.2-1.8-1.2-2.8s.4-2.1,1.2-2.9c.8-.8,1.7-1.2,2.8-1.2h72.3c1.1,0,2.1,.4,2.9,1.2,.8,.8,1.2,1.8,1.2,2.9v24.1c0,1.1-.4,2.1-1.2,2.9s-1.8,1.2-2.9,1.2h-68.2v40h44.1c1.1,0,2.1,.4,2.9,1.2,.8,.8,1.2,1.8,1.2,2.9v24.1c0,1.1-.4,2.1-1.2,2.9s-1.8,1.2-2.9,1.2Zm24.1,72.3h-72.3c-1.1,0-2.1-.4-2.8-1.2-.8-.8-1.2-1.8-1.2-2.9s.4-2.1,1.2-2.9c.8-.8,1.7-1.2,2.8-1.2h68.2v-15.9h-68.2c-1.1,0-2.1-.4-2.9-1.2-.8-.8-1.2-1.8-1.2-2.9v-48.2c0-1.1,.4-2.1,1.2-2.8,.8-.8,1.8-1.2,2.9-1.2s2.1,.4,2.9,1.2c.8,.8,1.2,1.7,1.2,2.8v44.1h68.2c1.1,0,2.1,.4,2.9,1.2,.8,.8,1.2,1.8,1.2,2.9v24.1c0,1.1-.4,2.1-1.2,2.9s-1.8,1.2-2.9,1.2Z"/><path class="d" d="M871.9,213h-24.1c-1.1,0-2.1-.4-2.9-1.2-.8-.8-1.2-1.8-1.2-2.9V40c0-1,.4-2,1.2-2.8s1.8-1.2,2.9-1.2,2,.4,2.8,1.2c.8,.8,1.2,1.7,1.2,2.8V204.8h16v-44.1c0-1.1,.4-2.1,1.2-2.9s1.8-1.2,2.9-1.2,2,.4,2.8,1.2c.8,.8,1.2,1.8,1.2,2.9v48.2c0,1.1-.4,2-1.2,2.8-.8,.8-1.7,1.3-2.8,1.3Zm66-96.6c-.7,0-1.5-.2-2.2-.6-1.4-.8-2.1-2-2.1-3.5s.2-1.3,.5-1.9c4-6.9,5.9-14.3,5.9-22.2s-2-15.5-6-22.1c-4-6.7-9.3-12-16-16-6.7-4-14.1-6-22.2-6h-24.1c-1.1,0-2-.4-2.8-1.2-.8-.8-1.2-1.8-1.2-2.9s.4-2,1.2-2.8c.8-.8,1.7-1.3,2.8-1.3h24.1c9.6,0,18.4,2.4,26.4,7.1,8,4.7,14.3,11,19,19,4.7,7.9,7,16.7,7,26.3s-2.3,17.9-7,26.2c-.8,1.4-1.9,2.1-3.3,2.1Zm-41.9,0h-24.1c-1.1,0-2.1-.4-2.9-1.2-.8-.8-1.2-1.8-1.2-2.9s.4-2,1.2-2.8,1.8-1.2,2.9-1.2h24.2c5.7-.2,10.4-2.3,14.2-6.1,3.8-3.8,5.7-8.5,5.7-14s-2-10.2-5.9-14.1c-3.9-3.9-8.6-5.9-14.1-5.9h-24.1c-1.1,0-2.1-.4-2.9-1.2-.8-.8-1.2-1.8-1.2-2.9s.4-2,1.2-2.8,1.8-1.2,2.9-1.2h24.1c7.8,0,14.4,2.7,19.9,8.2,5.5,5.5,8.3,12.1,8.3,19.9s-2.8,14.5-8.3,20c-5.5,5.5-12.2,8.2-19.9,8.2Zm49.2,96.6h-26.2c-1.7,0-3-.8-3.8-2.5l-30.1-69.9h-13.5c-1.1,0-2-.4-2.8-1.2-.8-.8-1.2-1.7-1.2-2.8s.4-2.1,1.2-2.9,1.7-1.2,2.8-1.2h16.2c1.6,0,2.9,.8,3.8,2.4l29.9,69.9h17.3c-20.1-47-30.2-70.8-30.2-71.4s.2-1.1,.5-1.8c.7-1.5,2-2.2,3.8-2.2s2.9,.8,3.6,2.4l32.2,75.4c.2,.6,.4,1.1,.4,1.7,0,.8-.2,1.5-.6,2.2-1,1.3-2.1,1.9-3.5,1.9Z"/></g></svg>